<?xml version="1.0" encoding="UTF-8"?><svg id="Layer_2" xmlns="http://www.w3.org/2000/svg" viewBox="0 0 199.2 203.53"><defs><style>.cls-1{fill:#333;}.cls-1,.cls-2{stroke:#000;stroke-miterlimit:10;stroke-width:6px;}.cls-2{fill:#d44b38;}</style></defs><g id="Layer_1-2"><path class="cls-1" d="M172.9,101.76c0-2.19-.11-4.35-.3-6.48l23.21-15.9c-1.29-5.55-3.04-10.91-5.21-16.06l-28.11,.78c-2.24-3.73-4.8-7.23-7.64-10.49l9.43-26.49c-4.25-3.69-8.82-7.01-13.66-9.94l-22.26,17.14c-3.95-1.69-8.09-3.02-12.36-4l-7.94-26.96c-2.79-.24-5.6-.36-8.45-.36s-5.66,.13-8.45,.36l-7.94,26.96c-4.27,.98-8.41,2.31-12.36,4l-22.26-17.14c-4.84,2.93-9.41,6.25-13.66,9.94l9.43,26.49c-2.84,3.26-5.41,6.76-7.64,10.49l-28.11-.78c-2.18,5.14-3.93,10.51-5.21,16.06l23.21,15.9c-.19,2.14-.3,4.3-.3,6.48s.11,4.35,.3,6.48L3.38,124.15c1.29,5.55,3.04,10.91,5.21,16.06l28.11-.78c2.24,3.73,4.8,7.23,7.64,10.49l-9.43,26.49c4.25,3.69,8.82,7.01,13.66,9.94l22.26-17.14c3.95,1.69,8.09,3.02,12.36,4l7.94,26.96c2.79,.24,5.6,.36,8.45,.36s5.66-.13,8.45-.36l7.94-26.96c4.27-.98,8.41-2.31,12.36-4l22.26,17.14c4.84-2.93,9.41-6.25,13.66-9.94l-9.43-26.49c2.84-3.26,5.41-6.76,7.64-10.49l28.11,.78c2.18-5.14,3.93-10.51,5.21-16.06l-23.21-15.9c.19-2.14,.3-4.3,.3-6.48Zm-73.3,46.65c-25.77,0-46.65-20.89-46.65-46.65s20.89-46.65,46.65-46.65,46.65,20.89,46.65,46.65-20.89,46.65-46.65,46.65Z"/><polygon class="cls-2" points="99.6 26.14 121.78 71.09 171.39 78.29 135.49 113.28 143.97 162.68 99.6 139.36 55.23 162.68 63.71 113.28 27.81 78.29 77.42 71.09 99.6 26.14"/><g><path d="M89.55,110.48h0s-14.76-9.47-14.76-9.47c-.9-.58-.9-1.99,0-2.57l14.09-9.04c.42-.27,.68-.76,.68-1.29v-2.46c0-1.16-1.17-1.88-2.1-1.29l-21.78,13.98c-.9,.58-.9,1.99,0,2.57l21.78,13.98c.92,.59,2.1-.13,2.1-1.29v-3.13Z"/><path d="M109.65,110.48h0s14.76-9.47,14.76-9.47c.9-.58,.9-1.99,0-2.57l-14.09-9.04c-.42-.27-.68-.76-.68-1.29v-2.46c0-1.16,1.17-1.88,2.1-1.29l21.78,13.98c.9,.58,.9,1.99,0,2.57l-21.78,13.98c-.92,.59-2.1-.13-2.1-1.29v-3.13Z"/><path d="M107.6,81.88l-10.87,37.24c-.31,1.07-1.54,1.62-2.73,1.21l-.8-.27c-1.2-.41-1.91-1.6-1.6-2.68l10.87-37.24c.31-1.07,1.54-1.62,2.73-1.21l.8,.27c1.2,.41,1.91,1.6,1.6,2.68Z"/></g></g></svg>